<svg xmlns="http://www.w3.org/2000/svg" width="615" height="326" viewBox="0 0 615 326">
  <g id="Grupo_37021" data-name="Grupo 37021" transform="translate(-652.5 -3344)">
    <rect id="Rectángulo_6091" data-name="Rectángulo 6091" width="568" height="306.401" rx="15" transform="translate(1267.5 3670) rotate(180)" fill="#eaeaea"/>
    <g id="info" transform="translate(652.5 3344)">
      <path id="Trazado_60718" data-name="Trazado 60718" d="M126,63A63,63,0,1,1,63,0,63,63,0,0,1,126,63Zm0,0" fill="#d7e1f2"/>
      <path id="Trazado_60719" data-name="Trazado 60719" d="M142.25,87.125A55.125,55.125,0,1,1,87.125,32,55.125,55.125,0,0,1,142.25,87.125Zm0,0" transform="translate(-24.125 -24.125)" fill="#82b1ff"/>
      <g id="Grupo_37020" data-name="Grupo 37020" transform="translate(59.063 31.5)">
        <path id="Trazado_60720" data-name="Trazado 60720" d="M243.938,192a3.938,3.938,0,0,1,3.938,3.938v39.375a3.938,3.938,0,0,1-7.875,0V195.938A3.938,3.938,0,0,1,243.938,192Zm0,0" transform="translate(-240 -176.25)" fill="#fff"/>
        <path id="Trazado_60721" data-name="Trazado 60721" d="M240,128h7.875v7.875H240Zm0,0" transform="translate(-240 -128)" fill="#fff"/>
      </g>
    </g>
  </g>
</svg>
