<svg xmlns="http://www.w3.org/2000/svg" xmlns:xlink="http://www.w3.org/1999/xlink" width="1920" height="373.51" viewBox="0 0 1920 373.51">
  <defs>
    <clipPath id="clip-path">
      <rect id="Rectángulo_5936" data-name="Rectángulo 5936" width="1920" height="373.51" transform="translate(3.77 1.14)" fill="none"/>
    </clipPath>
  </defs>
  <g id="Grupo_28976" data-name="Grupo 28976" transform="translate(-3.77 -1.14)" clip-path="url(#clip-path)">
    <path id="Trazado_58817" data-name="Trazado 58817" d="M-379.347,1005.91s-342.494-301.8-124.6-656.873S6.589,172.528-7.573-240.747,665.456-689.528,884.193-569.7s217.424,264.158,668.984,216.406S2091-2.98,1973.524,199.892c-166.682,287.842,462.611,240.367,66.087,806.018Z" fill="#311b92" opacity="0.5"/>
    <path id="Trazado_58819" data-name="Trazado 58819" d="M-344.435,1444.968s-288.491-254.212-104.955-553.3S-19.351,742.99-31.28,394.878,535.629,16.858,719.877,117.8,903.018,340.3,1283.378,300.08,1736.4,595.155,1637.447,766.039c-140.4,242.456,389.669,202.467,55.667,678.929Z" transform="translate(-602 -66)" fill="#311b92" opacity="0.5"/>
    <path id="Trazado_58818" data-name="Trazado 58818" d="M838.05,1247.83S549.559,993.618,733.095,694.53s430.039-148.678,418.11-496.79,566.909-378.02,751.157-277.082,183.141,222.506,563.5,182.284S2918.886,398.017,2819.932,568.9c-140.4,242.456,389.669,202.467,55.667,678.929Z" transform="translate(452.77 -774)" fill="#01579b"/>
    <path id="Trazado_58823" data-name="Trazado 58823" d="M1989.885,122.763s-35.587,89.861-51.754,82.136,46.811-97.242,46.811-97.242-51.346-83.34-82.149-99.134c0,0-3.506,107.8-17.294,96.3s-15.3-123.85-15.3-123.85-66.9-62.828-107.623-25.322-35.342,72.782-25.894,82.823,82.122,55.362,74.3,63.6-66.015-7.9-87.808-33.818c0,0-17.04,93.81,24.655,115.268s69.331,4.722,94.859,18.455,39.149,31.758,22.816,30.556-54.721-32.081-85-27.844-52.735,4.409-20.987,35.394,100.248,68.322,131.2,48.41h0c4.238,8.286,2.432,33.662.306,52.659-.556,3.107-1.127,7.536-1.7,13.678h0c-.369,2.706-.688,4.909-.917,6.443-7.593,40.735-49.746,92.437-49.746,92.437l6.469,7.119c52.9-45.425,51.834-111.313,51.834-111.313,3.542-49.437,24.7-80.935,24.7-80.935s95.192,5.409,96.337-69.433C2018,199.151,2012.614,149.284,1989.885,122.763Z" fill="#a9c2ff" opacity="0.3"/>
    <path id="Trazado_58824" data-name="Trazado 58824" d="M1325.464,516.569h-121.7c5.861-4.325,26.9-19.41,45.948-27.556,7.9-3.374,15.449-5.557,21.441-5.288C1290.156,484.578,1316.793,508.347,1325.464,516.569Z" fill="#fc801c"/>
    <path id="Trazado_58825" data-name="Trazado 58825" d="M1286.778,516.569h-121.7c8.288-6.118,46.936-33.759,67.388-32.844,5.336.241,11.273,2.288,17.246,5.288C1265.011,496.7,1280.539,510.653,1286.778,516.569Z" fill="#fb9d39"/>
    <path id="Trazado_58826" data-name="Trazado 58826" d="M1919.742,518.229H1107.581a.8.8,0,0,1-.8-.8h0a.8.8,0,0,1,.8-.8h812.161a.8.8,0,0,1,.8.8h0A.8.8,0,0,1,1919.742,518.229Z" fill="#1e2e50"/>
    <path id="Trazado_58827" data-name="Trazado 58827" d="M1253.633,446.5a1.025,1.025,0,0,0-1.224.768l-9.277,40.518c-2.506.074-5.054,2.787-5.919,6.567l-.884,3.86a5.433,5.433,0,0,0-.121.65l10.3,2.359a2.7,2.7,0,0,0,.2-.632l.884-3.86c.863-3.769-.242-7.312-2.473-8.483l9.279-40.523A1.025,1.025,0,0,0,1253.633,446.5Z" fill="#0d458d"/>
    <path id="Trazado_58828" data-name="Trazado 58828" d="M1226.671,498.8s21.4-5.542,28.231-1.031-3.481,9.281-3.481,9.281Z" fill="#fb9d39"/>
    <g id="Grupo_28971" data-name="Grupo 28971" transform="translate(31 -23)">
      <path id="Trazado_58895" data-name="Trazado 58895" d="M141.6-34.222S266.474,26,257.765,134.075c0,0-2.007,20.957-25.976,22.782S216.63,118.079,213.139,91,184.268-3,141.6-34.222Z" fill="#a9c2ff" opacity="0.3"/>
      <path id="Trazado_58896" data-name="Trazado 58896" d="M166.782-31.151s111.544,13.236,133.35,98.329c0,0,3.984,16.586-13.9,24.3S264.4,65.763,254.592,45.94,207.7-18.477,166.782-31.151Z" fill="#a9c2ff" opacity="0.3"/>
    </g>
    <path id="Trazado_58897" data-name="Trazado 58897" d="M281.815,305.294c27.778-39.765-34.176-91.073-34.176-91.073s-97.306,11.335-108.824.6S220.1,188.878,220.1,188.878c-17.17-25.1-95.084-60.525-95.084-60.525S54.809,193.4,46.284,180.161s65.106-54.42,65.106-54.42c-25.524-16.849-69.251-15.934-69.251-15.934-64.576,9.431-49.034,91.9-49.034,91.9s-24.817,22.017-67.154,30.678h0a112.842,112.842,0,0,0-20.534,5l5.122,6.128q3.091-1.308,6.142-2.308a.043.043,0,0,1,.037-.012l.088-.028c1.3-.371,3.146-.892,5.415-1.51l.008,0c.005,0,.009,0,.012,0,5.225-1.188,8.986-2.183,11.608-3.015l.023-.01c16.179-3.995,37.907-8.428,45.553-5.663a15.424,15.424,0,0,1,1.709-3.657l-1.709,3.657C-34.259,260.214,5.84,315.789,36.252,340.007s28,4.6,28.205-22.3-30.871-56.926-33.774-71.045S44.917,242.4,59.7,263.128s3.471,46.736,26.782,80.707,102.471,8.531,102.471,8.531c-24.9-16.1-45.491-65.068-39.261-72.822s53.708,50.564,63.468,57.679S254.036,345.059,281.815,305.294Z" fill="#a9c2ff" opacity="0.3"/>
  </g>
</svg>
